<svg width="260" height="260" viewBox="0 0 260 260" fill="none" xmlns="http://www.w3.org/2000/svg">
<path d="M30 140.833C38.8889 105.278 61.1111 87.5 96.6667 87.5C129.72 87.5 144.843 102.854 157.909 116.12L157.911 116.122L157.914 116.125C165.946 124.279 173.19 131.634 183.333 134.167C201.111 138.611 216.667 131.944 230 114.167C221.111 149.722 198.889 167.5 163.333 167.5C130.304 167.5 115.18 152.158 102.106 138.895L102.089 138.878L102.086 138.875C94.0539 130.721 86.8099 123.366 76.6667 120.833C58.8889 116.389 43.3333 123.056 30 140.833Z" fill="#2DD4BF"/>
<circle cx="130" cy="130" r="122" stroke="black" stroke-width="16"/>
</svg>
