<svg width="138" height="24" viewBox="0 0 138 24" fill="none" xmlns="http://www.w3.org/2000/svg">
<path d="M3 12.8C3.8 9.6 5.8 8 9 8C11.9748 8 13.3359 9.38185 14.5118 10.5758L14.512 10.576L14.5122 10.5763C15.2351 11.3102 15.8871 11.972 16.8 12.2C18.4 12.6 19.8 12 21 10.4C20.2 13.6 18.2 15.2 15 15.2C12.0273 15.2 10.6662 13.8192 9.48957 12.6256L9.488 12.624L9.48775 12.6237C8.76485 11.8898 8.1129 11.228 7.2 11C5.6 10.6 4.2 11.2 3 12.8Z" fill="#2DD4BF"/>
<circle cx="12" cy="12" r="11" stroke="black" stroke-width="2"/>
<path d="M36.1426 7.46875V16H35.0293V7.46875H36.1426ZM38.8848 7.46875V8.39453H32.293V7.46875H38.8848ZM43.7246 14.916V11.6523C43.7246 11.4023 43.6738 11.1855 43.5723 11.002C43.4746 10.8145 43.3262 10.6699 43.127 10.5684C42.9277 10.4668 42.6816 10.416 42.3887 10.416C42.1152 10.416 41.875 10.4629 41.668 10.5566C41.4648 10.6504 41.3047 10.7734 41.1875 10.9258C41.0742 11.0781 41.0176 11.2422 41.0176 11.418H39.9336C39.9336 11.1914 39.9922 10.9668 40.1094 10.7441C40.2266 10.5215 40.3945 10.3203 40.6133 10.1406C40.8359 9.95703 41.1016 9.8125 41.4102 9.70703C41.7227 9.59766 42.0703 9.54297 42.4531 9.54297C42.9141 9.54297 43.3203 9.62109 43.6719 9.77734C44.0273 9.93359 44.3047 10.1699 44.5039 10.4863C44.707 10.7988 44.8086 11.1914 44.8086 11.6641V14.6172C44.8086 14.8281 44.8262 15.0527 44.8613 15.291C44.9004 15.5293 44.957 15.7344 45.0312 15.9062V16H43.9004C43.8457 15.875 43.8027 15.709 43.7715 15.502C43.7402 15.291 43.7246 15.0957 43.7246 14.916ZM43.9121 12.1562L43.9238 12.918H42.8281C42.5195 12.918 42.2441 12.9434 42.002 12.9941C41.7598 13.041 41.5566 13.1133 41.3926 13.2109C41.2285 13.3086 41.1035 13.4316 41.0176 13.5801C40.9316 13.7246 40.8887 13.8945 40.8887 14.0898C40.8887 14.2891 40.9336 14.4707 41.0234 14.6348C41.1133 14.7988 41.248 14.9297 41.4277 15.0273C41.6113 15.1211 41.8359 15.168 42.1016 15.168C42.4336 15.168 42.7266 15.0977 42.9805 14.957C43.2344 14.8164 43.4355 14.6445 43.584 14.4414C43.7363 14.2383 43.8184 14.041 43.8301 13.8496L44.293 14.3711C44.2656 14.5352 44.1914 14.7168 44.0703 14.916C43.9492 15.1152 43.7871 15.3066 43.584 15.4902C43.3848 15.6699 43.1465 15.8203 42.8691 15.9414C42.5957 16.0586 42.2871 16.1172 41.9434 16.1172C41.5137 16.1172 41.1367 16.0332 40.8125 15.8652C40.4922 15.6973 40.2422 15.4727 40.0625 15.1914C39.8867 14.9062 39.7988 14.5879 39.7988 14.2363C39.7988 13.8965 39.8652 13.5977 39.998 13.3398C40.1309 13.0781 40.3223 12.8613 40.5723 12.6895C40.8223 12.5137 41.123 12.3809 41.4746 12.291C41.8262 12.2012 42.2188 12.1562 42.6523 12.1562H43.9121ZM47.6914 9.66016V16H46.6016V9.66016H47.6914ZM46.5195 7.97852C46.5195 7.80273 46.5723 7.6543 46.6777 7.5332C46.7871 7.41211 46.9473 7.35156 47.1582 7.35156C47.3652 7.35156 47.5234 7.41211 47.6328 7.5332C47.7461 7.6543 47.8027 7.80273 47.8027 7.97852C47.8027 8.14648 47.7461 8.29102 47.6328 8.41211C47.5234 8.5293 47.3652 8.58789 47.1582 8.58789C46.9473 8.58789 46.7871 8.5293 46.6777 8.41211C46.5723 8.29102 46.5195 8.14648 46.5195 7.97852ZM50.6094 7V16H49.5195V7H50.6094Z" fill="#2DD4BF"/>
<path d="M55.8477 7.46875H56.9434L59.7383 14.4238L62.5273 7.46875H63.6289L60.1602 16H59.3047L55.8477 7.46875ZM55.4902 7.46875H56.457L56.6152 12.6719V16H55.4902V7.46875ZM63.0137 7.46875H63.9805V16H62.8555V12.6719L63.0137 7.46875ZM69.541 14.916V11.6523C69.541 11.4023 69.4902 11.1855 69.3887 11.002C69.291 10.8145 69.1426 10.6699 68.9434 10.5684C68.7441 10.4668 68.498 10.416 68.2051 10.416C67.9316 10.416 67.6914 10.4629 67.4844 10.5566C67.2812 10.6504 67.1211 10.7734 67.0039 10.9258C66.8906 11.0781 66.834 11.2422 66.834 11.418H65.75C65.75 11.1914 65.8086 10.9668 65.9258 10.7441C66.043 10.5215 66.2109 10.3203 66.4297 10.1406C66.6523 9.95703 66.918 9.8125 67.2266 9.70703C67.5391 9.59766 67.8867 9.54297 68.2695 9.54297C68.7305 9.54297 69.1367 9.62109 69.4883 9.77734C69.8438 9.93359 70.1211 10.1699 70.3203 10.4863C70.5234 10.7988 70.625 11.1914 70.625 11.6641V14.6172C70.625 14.8281 70.6426 15.0527 70.6777 15.291C70.7168 15.5293 70.7734 15.7344 70.8477 15.9062V16H69.7168C69.6621 15.875 69.6191 15.709 69.5879 15.502C69.5566 15.291 69.541 15.0957 69.541 14.916ZM69.7285 12.1562L69.7402 12.918H68.6445C68.3359 12.918 68.0605 12.9434 67.8184 12.9941C67.5762 13.041 67.373 13.1133 67.209 13.2109C67.0449 13.3086 66.9199 13.4316 66.834 13.5801C66.748 13.7246 66.7051 13.8945 66.7051 14.0898C66.7051 14.2891 66.75 14.4707 66.8398 14.6348C66.9297 14.7988 67.0645 14.9297 67.2441 15.0273C67.4277 15.1211 67.6523 15.168 67.918 15.168C68.25 15.168 68.543 15.0977 68.7969 14.957C69.0508 14.8164 69.252 14.6445 69.4004 14.4414C69.5527 14.2383 69.6348 14.041 69.6465 13.8496L70.1094 14.3711C70.082 14.5352 70.0078 14.7168 69.8867 14.916C69.7656 15.1152 69.6035 15.3066 69.4004 15.4902C69.2012 15.6699 68.9629 15.8203 68.6855 15.9414C68.4121 16.0586 68.1035 16.1172 67.7598 16.1172C67.3301 16.1172 66.9531 16.0332 66.6289 15.8652C66.3086 15.6973 66.0586 15.4727 65.8789 15.1914C65.7031 14.9062 65.6152 14.5879 65.6152 14.2363C65.6152 13.8965 65.6816 13.5977 65.8145 13.3398C65.9473 13.0781 66.1387 12.8613 66.3887 12.6895C66.6387 12.5137 66.9395 12.3809 67.291 12.291C67.6426 12.2012 68.0352 12.1562 68.4688 12.1562H69.7285ZM74.9844 9.66016V10.4922H71.5566V9.66016H74.9844ZM72.7168 8.11914H73.8008V14.4297C73.8008 14.6445 73.834 14.8066 73.9004 14.916C73.9668 15.0254 74.0527 15.0977 74.1582 15.1328C74.2637 15.168 74.377 15.1855 74.498 15.1855C74.5879 15.1855 74.6816 15.1777 74.7793 15.1621C74.8809 15.1426 74.957 15.127 75.0078 15.1152L75.0137 16C74.9277 16.0273 74.8145 16.0527 74.6738 16.0762C74.5371 16.1035 74.3711 16.1172 74.1758 16.1172C73.9102 16.1172 73.666 16.0645 73.4434 15.959C73.2207 15.8535 73.043 15.6777 72.9102 15.4316C72.7812 15.1816 72.7168 14.8457 72.7168 14.4238V8.11914ZM78.8867 16.1172C78.4453 16.1172 78.0449 16.043 77.6855 15.8945C77.3301 15.7422 77.0234 15.5293 76.7656 15.2559C76.5117 14.9824 76.3164 14.6582 76.1797 14.2832C76.043 13.9082 75.9746 13.498 75.9746 13.0527V12.8066C75.9746 12.291 76.0508 11.832 76.2031 11.4297C76.3555 11.0234 76.5625 10.6797 76.8242 10.3984C77.0859 10.1172 77.3828 9.9043 77.7148 9.75977C78.0469 9.61523 78.3906 9.54297 78.7461 9.54297C79.1992 9.54297 79.5898 9.62109 79.918 9.77734C80.25 9.93359 80.5215 10.1523 80.7324 10.4336C80.9434 10.7109 81.0996 11.0391 81.2012 11.418C81.3027 11.793 81.3535 12.2031 81.3535 12.6484V13.1348H76.6191V12.25H80.2695V12.168C80.2539 11.8867 80.1953 11.6133 80.0938 11.3477C79.9961 11.082 79.8398 10.8633 79.625 10.6914C79.4102 10.5195 79.1172 10.4336 78.7461 10.4336C78.5 10.4336 78.2734 10.4863 78.0664 10.5918C77.8594 10.6934 77.6816 10.8457 77.5332 11.0488C77.3848 11.252 77.2695 11.5 77.1875 11.793C77.1055 12.0859 77.0645 12.4238 77.0645 12.8066V13.0527C77.0645 13.3535 77.1055 13.6367 77.1875 13.9023C77.2734 14.1641 77.3965 14.3945 77.5566 14.5938C77.7207 14.793 77.918 14.9492 78.1484 15.0625C78.3828 15.1758 78.6484 15.2324 78.9453 15.2324C79.3281 15.2324 79.6523 15.1543 79.918 14.998C80.1836 14.8418 80.416 14.6328 80.6152 14.3711L81.2715 14.8926C81.1348 15.0996 80.9609 15.2969 80.75 15.4844C80.5391 15.6719 80.2793 15.8242 79.9707 15.9414C79.666 16.0586 79.3047 16.1172 78.8867 16.1172ZM83.7031 10.6562V16H82.6191V9.66016H83.6738L83.7031 10.6562ZM85.6836 9.625L85.6777 10.6328C85.5879 10.6133 85.502 10.6016 85.4199 10.5977C85.3418 10.5898 85.252 10.5859 85.1504 10.5859C84.9004 10.5859 84.6797 10.625 84.4883 10.7031C84.2969 10.7812 84.1348 10.8906 84.002 11.0312C83.8691 11.1719 83.7637 11.3398 83.6855 11.5352C83.6113 11.7266 83.5625 11.9375 83.5391 12.168L83.2344 12.3438C83.2344 11.9609 83.2715 11.6016 83.3457 11.2656C83.4238 10.9297 83.543 10.6328 83.7031 10.375C83.8633 10.1133 84.0664 9.91016 84.3125 9.76562C84.5625 9.61719 84.8594 9.54297 85.2031 9.54297C85.2812 9.54297 85.3711 9.55273 85.4727 9.57227C85.5742 9.58789 85.6445 9.60547 85.6836 9.625ZM87.8633 9.66016V16H86.7734V9.66016H87.8633ZM86.6914 7.97852C86.6914 7.80273 86.7441 7.6543 86.8496 7.5332C86.959 7.41211 87.1191 7.35156 87.3301 7.35156C87.5371 7.35156 87.6953 7.41211 87.8047 7.5332C87.918 7.6543 87.9746 7.80273 87.9746 7.97852C87.9746 8.14648 87.918 8.29102 87.8047 8.41211C87.6953 8.5293 87.5371 8.58789 87.3301 8.58789C87.1191 8.58789 86.959 8.5293 86.8496 8.41211C86.7441 8.29102 86.6914 8.14648 86.6914 7.97852ZM93.3418 14.916V11.6523C93.3418 11.4023 93.291 11.1855 93.1895 11.002C93.0918 10.8145 92.9434 10.6699 92.7441 10.5684C92.5449 10.4668 92.2988 10.416 92.0059 10.416C91.7324 10.416 91.4922 10.4629 91.2852 10.5566C91.082 10.6504 90.9219 10.7734 90.8047 10.9258C90.6914 11.0781 90.6348 11.2422 90.6348 11.418H89.5508C89.5508 11.1914 89.6094 10.9668 89.7266 10.7441C89.8438 10.5215 90.0117 10.3203 90.2305 10.1406C90.4531 9.95703 90.7188 9.8125 91.0273 9.70703C91.3398 9.59766 91.6875 9.54297 92.0703 9.54297C92.5312 9.54297 92.9375 9.62109 93.2891 9.77734C93.6445 9.93359 93.9219 10.1699 94.1211 10.4863C94.3242 10.7988 94.4258 11.1914 94.4258 11.6641V14.6172C94.4258 14.8281 94.4434 15.0527 94.4785 15.291C94.5176 15.5293 94.5742 15.7344 94.6484 15.9062V16H93.5176C93.4629 15.875 93.4199 15.709 93.3887 15.502C93.3574 15.291 93.3418 15.0957 93.3418 14.916ZM93.5293 12.1562L93.541 12.918H92.4453C92.1367 12.918 91.8613 12.9434 91.6191 12.9941C91.377 13.041 91.1738 13.1133 91.0098 13.2109C90.8457 13.3086 90.7207 13.4316 90.6348 13.5801C90.5488 13.7246 90.5059 13.8945 90.5059 14.0898C90.5059 14.2891 90.5508 14.4707 90.6406 14.6348C90.7305 14.7988 90.8652 14.9297 91.0449 15.0273C91.2285 15.1211 91.4531 15.168 91.7188 15.168C92.0508 15.168 92.3438 15.0977 92.5977 14.957C92.8516 14.8164 93.0527 14.6445 93.2012 14.4414C93.3535 14.2383 93.4355 14.041 93.4473 13.8496L93.9102 14.3711C93.8828 14.5352 93.8086 14.7168 93.6875 14.916C93.5664 15.1152 93.4043 15.3066 93.2012 15.4902C93.002 15.6699 92.7637 15.8203 92.4863 15.9414C92.2129 16.0586 91.9043 16.1172 91.5605 16.1172C91.1309 16.1172 90.7539 16.0332 90.4297 15.8652C90.1094 15.6973 89.8594 15.4727 89.6797 15.1914C89.5039 14.9062 89.416 14.5879 89.416 14.2363C89.416 13.8965 89.4824 13.5977 89.6152 13.3398C89.748 13.0781 89.9395 12.8613 90.1895 12.6895C90.4395 12.5137 90.7402 12.3809 91.0918 12.291C91.4434 12.2012 91.8359 12.1562 92.2695 12.1562H93.5293ZM97.3086 7V16H96.2188V7H97.3086ZM104.498 16H102.717L102.729 15.0801H104.498C105.107 15.0801 105.615 14.9531 106.021 14.6992C106.428 14.4414 106.732 14.082 106.936 13.6211C107.143 13.1562 107.246 12.6133 107.246 11.9922V11.4707C107.246 10.9824 107.188 10.5488 107.07 10.1699C106.953 9.78711 106.781 9.46484 106.555 9.20312C106.328 8.9375 106.051 8.73633 105.723 8.59961C105.398 8.46289 105.025 8.39453 104.604 8.39453H102.682V7.46875H104.604C105.162 7.46875 105.672 7.5625 106.133 7.75C106.594 7.93359 106.99 8.20117 107.322 8.55273C107.658 8.90039 107.916 9.32227 108.096 9.81836C108.275 10.3105 108.365 10.8652 108.365 11.4824V11.9922C108.365 12.6094 108.275 13.166 108.096 13.6621C107.916 14.1543 107.656 14.5742 107.316 14.9219C106.98 15.2695 106.574 15.5371 106.098 15.7246C105.625 15.9082 105.092 16 104.498 16ZM103.32 7.46875V16H102.189V7.46875H103.32ZM112.531 16.1172C112.09 16.1172 111.689 16.043 111.33 15.8945C110.975 15.7422 110.668 15.5293 110.41 15.2559C110.156 14.9824 109.961 14.6582 109.824 14.2832C109.688 13.9082 109.619 13.498 109.619 13.0527V12.8066C109.619 12.291 109.695 11.832 109.848 11.4297C110 11.0234 110.207 10.6797 110.469 10.3984C110.73 10.1172 111.027 9.9043 111.359 9.75977C111.691 9.61523 112.035 9.54297 112.391 9.54297C112.844 9.54297 113.234 9.62109 113.562 9.77734C113.895 9.93359 114.166 10.1523 114.377 10.4336C114.588 10.7109 114.744 11.0391 114.846 11.418C114.947 11.793 114.998 12.2031 114.998 12.6484V13.1348H110.264V12.25H113.914V12.168C113.898 11.8867 113.84 11.6133 113.738 11.3477C113.641 11.082 113.484 10.8633 113.27 10.6914C113.055 10.5195 112.762 10.4336 112.391 10.4336C112.145 10.4336 111.918 10.4863 111.711 10.5918C111.504 10.6934 111.326 10.8457 111.178 11.0488C111.029 11.252 110.914 11.5 110.832 11.793C110.75 12.0859 110.709 12.4238 110.709 12.8066V13.0527C110.709 13.3535 110.75 13.6367 110.832 13.9023C110.918 14.1641 111.041 14.3945 111.201 14.5938C111.365 14.793 111.562 14.9492 111.793 15.0625C112.027 15.1758 112.293 15.2324 112.59 15.2324C112.973 15.2324 113.297 15.1543 113.562 14.998C113.828 14.8418 114.061 14.6328 114.26 14.3711L114.916 14.8926C114.779 15.0996 114.605 15.2969 114.395 15.4844C114.184 15.6719 113.924 15.8242 113.615 15.9414C113.311 16.0586 112.949 16.1172 112.531 16.1172ZM119.955 14.3184C119.955 14.1621 119.92 14.0176 119.85 13.8848C119.783 13.748 119.645 13.625 119.434 13.5156C119.227 13.4023 118.914 13.3047 118.496 13.2227C118.145 13.1484 117.826 13.0605 117.541 12.959C117.26 12.8574 117.02 12.7344 116.82 12.5898C116.625 12.4453 116.475 12.2754 116.369 12.0801C116.264 11.8848 116.211 11.6562 116.211 11.3945C116.211 11.1445 116.266 10.9082 116.375 10.6855C116.488 10.4629 116.646 10.2656 116.85 10.0938C117.057 9.92188 117.305 9.78711 117.594 9.68945C117.883 9.5918 118.205 9.54297 118.561 9.54297C119.068 9.54297 119.502 9.63281 119.861 9.8125C120.221 9.99219 120.496 10.2324 120.688 10.5332C120.879 10.8301 120.975 11.1602 120.975 11.5234H119.891C119.891 11.3477 119.838 11.1777 119.732 11.0137C119.631 10.8457 119.48 10.707 119.281 10.5977C119.086 10.4883 118.846 10.4336 118.561 10.4336C118.26 10.4336 118.016 10.4805 117.828 10.5742C117.645 10.6641 117.51 10.7793 117.424 10.9199C117.342 11.0605 117.301 11.209 117.301 11.3652C117.301 11.4824 117.32 11.5879 117.359 11.6816C117.402 11.7715 117.477 11.8555 117.582 11.9336C117.688 12.0078 117.836 12.0781 118.027 12.1445C118.219 12.2109 118.463 12.2773 118.76 12.3438C119.279 12.4609 119.707 12.6016 120.043 12.7656C120.379 12.9297 120.629 13.1309 120.793 13.3691C120.957 13.6074 121.039 13.8965 121.039 14.2363C121.039 14.5137 120.98 14.7676 120.863 14.998C120.75 15.2285 120.584 15.4277 120.365 15.5957C120.15 15.7598 119.893 15.8887 119.592 15.9824C119.295 16.0723 118.961 16.1172 118.59 16.1172C118.031 16.1172 117.559 16.0176 117.172 15.8184C116.785 15.6191 116.492 15.3613 116.293 15.0449C116.094 14.7285 115.994 14.3945 115.994 14.043H117.084C117.1 14.3398 117.186 14.5762 117.342 14.752C117.498 14.9238 117.689 15.0469 117.916 15.1211C118.143 15.1914 118.367 15.2266 118.59 15.2266C118.887 15.2266 119.135 15.1875 119.334 15.1094C119.537 15.0312 119.691 14.9238 119.797 14.7871C119.902 14.6504 119.955 14.4941 119.955 14.3184ZM123.641 9.66016V16H122.551V9.66016H123.641ZM122.469 7.97852C122.469 7.80273 122.521 7.6543 122.627 7.5332C122.736 7.41211 122.896 7.35156 123.107 7.35156C123.314 7.35156 123.473 7.41211 123.582 7.5332C123.695 7.6543 123.752 7.80273 123.752 7.97852C123.752 8.14648 123.695 8.29102 123.582 8.41211C123.473 8.5293 123.314 8.58789 123.107 8.58789C122.896 8.58789 122.736 8.5293 122.627 8.41211C122.521 8.29102 122.469 8.14648 122.469 7.97852ZM129.488 9.66016H130.473V15.8652C130.473 16.4238 130.359 16.9004 130.133 17.2949C129.906 17.6895 129.59 17.9883 129.184 18.1914C128.781 18.3984 128.316 18.502 127.789 18.502C127.57 18.502 127.312 18.4668 127.016 18.3965C126.723 18.3301 126.434 18.2148 126.148 18.0508C125.867 17.8906 125.631 17.6738 125.439 17.4004L126.008 16.7559C126.273 17.0762 126.551 17.2988 126.84 17.4238C127.133 17.5488 127.422 17.6113 127.707 17.6113C128.051 17.6113 128.348 17.5469 128.598 17.418C128.848 17.2891 129.041 17.0977 129.178 16.8438C129.318 16.5938 129.389 16.2852 129.389 15.918V11.0547L129.488 9.66016ZM125.123 12.9004V12.7773C125.123 12.293 125.18 11.8535 125.293 11.459C125.41 11.0605 125.576 10.7188 125.791 10.4336C126.01 10.1484 126.273 9.92969 126.582 9.77734C126.891 9.62109 127.238 9.54297 127.625 9.54297C128.023 9.54297 128.371 9.61328 128.668 9.75391C128.969 9.89062 129.223 10.0918 129.43 10.3574C129.641 10.6191 129.807 10.9355 129.928 11.3066C130.049 11.6777 130.133 12.0977 130.18 12.5664V13.1055C130.137 13.5703 130.053 13.9883 129.928 14.3594C129.807 14.7305 129.641 15.0469 129.43 15.3086C129.223 15.5703 128.969 15.7715 128.668 15.9121C128.367 16.0488 128.016 16.1172 127.613 16.1172C127.234 16.1172 126.891 16.0371 126.582 15.877C126.277 15.7168 126.016 15.4922 125.797 15.2031C125.578 14.9141 125.41 14.5742 125.293 14.1836C125.18 13.7891 125.123 13.3613 125.123 12.9004ZM126.207 12.7773V12.9004C126.207 13.2168 126.238 13.5137 126.301 13.791C126.367 14.0684 126.467 14.3125 126.6 14.5234C126.736 14.7344 126.91 14.9004 127.121 15.0215C127.332 15.1387 127.584 15.1973 127.877 15.1973C128.236 15.1973 128.533 15.1211 128.768 14.9688C129.002 14.8164 129.188 14.6152 129.324 14.3652C129.465 14.1152 129.574 13.8438 129.652 13.5508V12.1387C129.609 11.9238 129.543 11.7168 129.453 11.5176C129.367 11.3145 129.254 11.1348 129.113 10.9785C128.977 10.8184 128.807 10.6914 128.604 10.5977C128.4 10.5039 128.162 10.457 127.889 10.457C127.592 10.457 127.336 10.5195 127.121 10.6445C126.91 10.7656 126.736 10.9336 126.6 11.1484C126.467 11.3594 126.367 11.6055 126.301 11.8867C126.238 12.1641 126.207 12.4609 126.207 12.7773ZM133.203 11.0137V16H132.119V9.66016H133.145L133.203 11.0137ZM132.945 12.5898L132.494 12.5723C132.498 12.1387 132.562 11.7383 132.688 11.3711C132.812 11 132.988 10.6777 133.215 10.4043C133.441 10.1309 133.711 9.91992 134.023 9.77148C134.34 9.61914 134.689 9.54297 135.072 9.54297C135.385 9.54297 135.666 9.58594 135.916 9.67188C136.166 9.75391 136.379 9.88672 136.555 10.0703C136.734 10.2539 136.871 10.4922 136.965 10.7852C137.059 11.0742 137.105 11.4277 137.105 11.8457V16H136.016V11.834C136.016 11.502 135.967 11.2363 135.869 11.0371C135.771 10.834 135.629 10.6875 135.441 10.5977C135.254 10.5039 135.023 10.457 134.75 10.457C134.48 10.457 134.234 10.5137 134.012 10.627C133.793 10.7402 133.604 10.8965 133.443 11.0957C133.287 11.2949 133.164 11.5234 133.074 11.7812C132.988 12.0352 132.945 12.3047 132.945 12.5898Z" fill="black"/>
</svg>
